<svg width="66" height="75" viewBox="0 0 66 75" fill="none" xmlns="http://www.w3.org/2000/svg">
<path d="M61.5239 52.2323C61.5239 60.268 59.4438 65.5759 56.1668 70.9822L15.9886 70.9822L7.15769 62.1513C2.16222 57.1558 3.2842 48.7777 9.41804 45.2727L15.9886 41.5181L15.9886 13.3933C15.9886 8.21571 20.1858 4.01841 25.3635 4.01841C30.5411 4.01841 34.7384 8.2157 34.7384 13.3933L34.7384 30.9509C45.9769 32.1184 61.5239 36.161 61.5239 52.2323Z" fill="#D7E0FF"/>
<path fill-rule="evenodd" clip-rule="evenodd" d="M11.4112 48.7605C7.57754 50.9512 6.8763 56.1875 9.99847 59.3097L18.8293 68.1405C20.3984 69.7096 20.3984 72.2535 18.8293 73.8226C17.2603 75.3917 14.7163 75.3917 13.1473 73.8226L4.31641 64.9917C-2.55236 58.123 -1.00964 46.6031 7.42439 41.7836L11.9705 39.1859L11.9705 13.3927C11.9705 5.99614 17.9666 -7.85346e-07 25.3632 -1.10866e-06C32.7598 -1.43198e-06 38.756 5.99614 38.756 13.3927L38.756 27.4131C43.8214 28.1875 49.5489 29.6473 54.408 32.5541C60.7203 36.3303 65.5415 42.5727 65.5415 52.2317C65.5415 61.1464 63.1774 67.1664 59.6025 73.0642C58.4522 74.9618 55.9815 75.5677 54.0839 74.4175C52.1863 73.2672 51.5804 70.7965 52.7307 68.8989C55.7098 63.9841 57.5058 59.3883 57.5058 52.2317C57.5058 45.8195 54.5535 42.0049 50.2827 39.45C45.7566 36.7424 39.7703 35.5125 34.323 34.9467C32.2758 34.734 30.7203 33.0086 30.7203 30.9503L30.7203 13.3927C30.7203 10.4341 28.3219 8.03565 25.3632 8.03565C22.4046 8.03565 20.0061 10.4341 20.0061 13.3927L20.0061 41.5175C20.0061 42.9593 19.2336 44.2906 17.9817 45.006L11.4112 48.7605Z" fill="#4147D5"/>
</svg>
