<?xml version="1.0" encoding="utf-8"?>
<!-- Generator: Adobe Illustrator 26.3.1, SVG Export Plug-In . SVG Version: 6.00 Build 0)  -->
<svg version="1.1" id="Layer_1" xmlns="http://www.w3.org/2000/svg" xmlns:xlink="http://www.w3.org/1999/xlink" x="0px" y="0px"
	 viewBox="0 0 56.46 44.84" style="enable-background:new 0 0 56.46 44.84;" xml:space="preserve">
<style type="text/css">
	.st0{fill:#A5A3B2;}
	.st1{opacity:0.6;fill:#A5A3B2;}
	.st2{fill:#231F20;}
</style>
<g>
	<rect x="11.35" y="32.35" class="st0" width="33.75" height="9.28"/>
	<g>
		<rect x="11.35" y="23.1" class="st1" width="33.75" height="9.28"/>
		<rect x="19.05" y="11.33" class="st1" width="9.28" height="11.78"/>
	</g>
	<g>
		<rect x="28.37" y="11.33" class="st0" width="9.28" height="11.78"/>
		<polygon class="st0" points="28.32,23.1 28.42,32.38 37.69,23.1 		"/>
	</g>
	<g>
		<rect y="32.35" class="st0" width="4.56" height="12.46"/>
		<rect x="4.56" y="21.85" class="st2" width="2.22" height="21.84"/>
		<rect y="19.89" class="st1" width="4.56" height="12.46"/>
		<g>
			<rect x="6.79" y="32.35" class="st0" width="4.56" height="12.46"/>
			<rect x="6.79" y="19.89" class="st1" width="4.56" height="12.46"/>
		</g>
	</g>
	<g>
		<rect x="45.1" y="32.38" class="st0" width="4.56" height="12.46"/>
		<rect x="49.67" y="21.88" class="st2" width="2.22" height="21.84"/>
		<rect x="45.1" y="19.91" class="st1" width="4.56" height="12.46"/>
		<g>
			<rect x="51.89" y="32.38" class="st0" width="4.56" height="12.46"/>
			<rect x="51.89" y="19.91" class="st1" width="4.56" height="12.46"/>
		</g>
	</g>
	<g>
		
			<rect x="32.18" y="2.84" transform="matrix(4.463103e-11 -1 1 4.463103e-11 25.3896 43.5308)" class="st0" width="4.56" height="12.46"/>
		
			<rect x="27.53" y="-5.24" transform="matrix(4.499340e-11 -1 1 4.499340e-11 22.969 34.322)" class="st2" width="2.22" height="21.84"/>
		
			<rect x="19.71" y="2.84" transform="matrix(4.463103e-11 -1 1 4.463103e-11 12.9249 31.0661)" class="st1" width="4.56" height="12.46"/>
		<g>
			
				<rect x="32.18" y="-3.95" transform="matrix(4.502982e-11 -1 1 4.502982e-11 32.1778 36.7425)" class="st0" width="4.56" height="12.46"/>
			
				<rect x="19.71" y="-3.95" transform="matrix(4.502982e-11 -1 1 4.502982e-11 19.7132 24.2779)" class="st1" width="4.56" height="12.46"/>
		</g>
	</g>
</g>
</svg>
